<svg width="20" height="20" viewBox="0 0 20 20" fill="none" xmlns="http://www.w3.org/2000/svg">
<path d="M14.9466 12.4043C13.1126 12.4043 11.6125 13.7924 11.4322 15.5776C11.4202 15.6967 11.4142 15.8179 11.4142 15.9401C11.4142 16.0573 11.4205 16.1725 11.4315 16.2867C11.4347 16.3203 11.4412 16.3538 11.4453 16.3874C11.6646 18.1308 13.1425 19.4753 14.9466 19.4753C16.7508 19.4753 18.231 18.1308 18.4508 16.3874C18.4549 16.3538 18.4614 16.3203 18.4645 16.2867C18.4756 16.1725 18.4819 16.0573 18.4819 15.9401C18.4819 13.9839 16.9029 12.4043 14.9466 12.4043L14.9466 12.4043ZM16.5827 14.2936C16.6804 14.2908 16.7748 14.3285 16.8437 14.3979C16.9807 14.5357 16.9807 14.7585 16.8437 14.8962L14.8451 16.8975C14.7905 16.9524 14.7195 16.9878 14.6429 16.9983C14.6331 16.9997 14.6231 17.0007 14.6132 17.0012C14.5128 17.0065 14.4149 16.9688 14.344 16.8975L13.0945 15.6473C13.028 15.5811 12.9906 15.4911 12.9906 15.3971C12.9906 15.3032 13.028 15.2133 13.0945 15.1468C13.158 15.0826 13.2437 15.0451 13.334 15.0419C13.4318 15.0394 13.5262 15.0774 13.595 15.1468L14.5946 16.1458L16.3452 14.3979C16.4083 14.3343 16.4932 14.2971 16.5827 14.2936L16.5827 14.2936Z" fill="#B3ADAD"/>
<path d="M3.28446 8.69438C3.62639 8.69438 3.95189 8.77833 4.26955 8.87316C4.09425 9.29382 3.99137 9.76324 3.99137 10.2828V13.8187H0.456238V10.9905C0.456238 10.2129 0.788544 9.67264 1.3094 9.28667C1.8304 8.90072 2.55467 8.69434 3.28447 8.69434L3.28446 8.69438Z" fill="#B3ADAD"/>
<path d="M8.40885 7.19189C9.08121 7.19189 9.72085 7.3844 10.2941 7.65643C9.94509 8.11954 9.71899 8.66866 9.66519 9.29396C9.65288 9.38532 9.64515 9.47905 9.64515 9.57625V14.878H4.69849V10.2831C4.69849 10.1402 4.70795 10.0042 4.72468 9.87306C4.72642 9.85839 4.73036 9.84482 4.73225 9.8303C4.7878 9.44293 4.91182 9.10369 5.08981 8.80373L5.08996 8.80389C5.09896 8.78826 5.10685 8.77217 5.11332 8.75544C5.30061 8.4558 5.54157 8.19845 5.82857 7.98226C6.51527 7.46473 7.45949 7.19191 8.40907 7.19191L8.40885 7.19189Z" fill="#B3ADAD"/>
<path d="M14.9466 6.48413C16.1289 6.48413 17.3105 6.76515 18.1635 7.2931C19.0165 7.82122 19.5441 8.55417 19.5441 9.57602V16.2923H19.1576C19.1659 16.1937 19.1793 16.0962 19.1845 15.9976C19.1877 15.9787 19.1894 15.9596 19.1894 15.9403C19.1894 15.9301 19.1882 15.9201 19.188 15.9099V15.91V15.9072C19.1733 14.0123 17.9085 12.4087 16.1796 11.8818C16.0496 11.8422 15.9175 11.8081 15.7826 11.781C15.7779 11.78 15.7728 11.7799 15.7681 11.7789C15.6382 11.7534 15.5063 11.733 15.3725 11.7196C15.3719 11.7196 15.3711 11.719 15.3704 11.719C15.2311 11.7049 15.0897 11.6975 14.9466 11.6975C14.8005 11.6975 14.6561 11.7051 14.5138 11.7196C12.3783 11.9374 10.7073 13.7482 10.7073 15.9404C10.7073 16.0592 10.7149 16.176 10.7245 16.2924H10.3518V15.2507V15.2509C10.352 15.2449 10.352 15.2389 10.3518 15.2329V9.57608C10.3518 9.46105 10.3608 9.35123 10.3739 9.2433C10.3778 9.21127 10.3834 9.18002 10.3884 9.14878C10.4002 9.07447 10.4154 9.0022 10.4332 8.93135C10.4424 8.89537 10.4507 8.8594 10.4615 8.82437C10.4814 8.75857 10.506 8.6953 10.5312 8.6325C10.5629 8.55471 10.5988 8.47881 10.6382 8.40544C10.6532 8.37735 10.6677 8.3488 10.6838 8.32118C10.719 8.26169 10.7567 8.20395 10.7969 8.1473C10.8061 8.1342 10.8157 8.12158 10.8252 8.10864C10.9189 7.98178 11.0248 7.86154 11.1427 7.74762L11.143 7.74746C11.152 7.73831 11.1605 7.72852 11.1685 7.71843C11.3352 7.56364 11.524 7.42226 11.7325 7.2932C12.5855 6.76508 13.7643 6.48422 14.9466 6.48422L14.9466 6.48413Z" fill="#B3ADAD"/>
<path d="M3.28443 4.62917C3.87426 4.62917 4.34336 5.09907 4.34336 5.68886C4.34336 6.27866 3.87426 6.75062 3.28443 6.75062C2.6946 6.75062 2.22473 6.27866 2.22473 5.68886C2.22473 5.61518 2.23215 5.54338 2.24619 5.47411C2.34418 4.98906 2.76832 4.62915 3.28444 4.62915L3.28443 4.62917Z" fill="#B3ADAD"/>
<path d="M8.23109 1.80095C8.29231 1.80095 8.35306 1.80395 8.41271 1.80994H8.41476C8.47361 1.81594 8.53168 1.82525 8.58864 1.83693C9.16551 1.95432 9.6384 2.35054 9.8617 2.88006C9.9286 3.03896 9.97279 3.21 9.99077 3.38879C9.99677 3.44828 9.99977 3.50887 9.99977 3.57024C9.99977 3.63147 9.99677 3.69158 9.99077 3.75107C9.97279 3.92985 9.9286 4.10121 9.8617 4.2598C9.63859 4.78872 9.16571 5.18381 8.58864 5.30087C8.47409 5.32407 8.35543 5.33653 8.23377 5.33669C8.17255 5.33669 8.1118 5.33306 8.05216 5.32707C7.27707 5.24912 6.65286 4.67652 6.5003 3.92717C6.47694 3.81182 6.46448 3.69285 6.46448 3.57025C6.46448 3.50903 6.46748 3.44828 6.47347 3.38863C6.47947 3.32899 6.48862 3.27029 6.50045 3.21254C6.65303 2.46258 7.27723 1.88806 8.05231 1.80978C8.11101 1.80394 8.17081 1.80078 8.23109 1.80078V1.80095Z" fill="#B3ADAD"/>
<path d="M14.9466 0.387212C15.0202 0.387212 15.0926 0.390999 15.1641 0.398257C16.0934 0.491984 16.8421 1.18057 17.0252 2.07982C17.0533 2.2182 17.0679 2.36084 17.0679 2.50792C17.0679 2.65482 17.0533 2.79825 17.0252 2.93662C16.8421 3.83587 16.0934 4.52447 15.1641 4.61819C15.0935 4.62529 15.0219 4.62907 14.9493 4.62923C14.8758 4.62923 14.8033 4.62545 14.7319 4.61819C14.6604 4.61093 14.5899 4.60051 14.5206 4.58647C13.7597 4.43168 13.1497 3.87186 12.9231 3.14016C12.8613 2.94072 12.8278 2.72818 12.8278 2.50791C12.8278 2.43438 12.8316 2.36196 12.8389 2.29048C12.8532 2.14752 12.8819 2.0093 12.9231 1.87628C13.1497 1.14478 13.7596 0.58492 14.5206 0.429968C14.5897 0.415925 14.6604 0.405353 14.7319 0.398252C14.8024 0.391152 14.874 0.387207 14.9466 0.387207L14.9466 0.387212Z" fill="#B3ADAD"/>
</svg>
