<svg width="19" height="20" viewBox="0 0 19 20" fill="none" xmlns="http://www.w3.org/2000/svg">
<g clip-path="url(#clip0_558_11690)">
<path d="M6.62375 9.10081C6.62375 11.0208 7.86288 12.5568 9.37306 12.5568C10.8832 12.5568 12.1224 10.9823 12.1224 9.10081C12.1224 7.33441 11.0382 6.18237 9.37306 6.18237C7.70795 6.18237 6.62375 7.33444 6.62375 9.10081Z" fill="#B3ADAD"/>
<path d="M11.3866 13.517C10.0701 13.1714 8.75347 13.1714 7.4369 13.517C6.73989 13.709 3.21613 14.7073 3.21613 16.2818V17.8946C3.21613 18.3937 3.64207 18.8161 4.14544 18.8161H14.6393C15.1426 18.8161 15.5686 18.3937 15.5686 17.8946V16.2818C15.5685 14.7075 11.4253 13.5554 11.3865 13.517H11.3866Z" fill="#B3ADAD"/>
<path d="M5.84928 9.10089C5.84928 8.17932 6.12033 7.37296 6.54629 6.75849C5.73311 6.64331 4.88121 6.72005 4.1068 6.95054C3.7196 7.06572 0.505585 7.94898 0.505585 9.36971V10.9825C0.505585 11.4433 0.892777 11.8273 1.35752 11.8273H6.70125C6.15913 11.0592 5.84932 10.1377 5.84932 9.10091L5.84928 9.10089Z" fill="#B3ADAD"/>
<path d="M13.013 5.91367C14.3295 5.91367 15.4138 4.5697 15.4138 2.9185C15.4138 1.38247 14.4845 0.384033 13.013 0.384033C11.5416 0.384033 10.6122 1.38247 10.6122 2.9185C10.6122 4.5697 11.6964 5.91367 13.013 5.91367Z" fill="#B3ADAD"/>
<path d="M5.77183 5.91367C7.08833 5.91367 8.17267 4.5697 8.17267 2.9185C8.17267 1.38247 7.24336 0.384033 5.77183 0.384033C4.3004 0.384033 3.37109 1.38247 3.37109 2.9185C3.37109 4.5697 4.45529 5.91367 5.77183 5.91367Z" fill="#B3ADAD"/>
<path d="M14.7168 6.95037C13.9036 6.72001 13.0517 6.68157 12.2385 6.75831C12.7032 7.37278 12.9355 8.17914 12.9355 9.10071C12.9355 10.1374 12.6257 11.0591 12.1223 11.7886H17.4661C17.9308 11.7886 18.318 11.4047 18.318 10.9438V9.33104C18.318 7.98721 15.3363 7.10394 14.7168 6.95031L14.7168 6.95037Z" fill="#B3ADAD"/>
</g>
<defs>
<clipPath id="clip0_558_11690">
<rect width="18.8235" height="20" fill="white"/>
</clipPath>
</defs>
</svg>
