<svg width="20" height="17" viewBox="0 0 20 17" fill="none" xmlns="http://www.w3.org/2000/svg">
<path d="M11.1613 0.532428C12.4192 0.532428 13.4561 1.5669 13.4561 2.84565V4.591C13.4555 4.66653 13.4399 4.74127 13.4103 4.81078C13.3807 4.88029 13.3376 4.94323 13.2835 4.99613C13.2294 5.0489 13.1654 5.09042 13.0952 5.11841C13.025 5.1464 12.9499 5.16006 12.8744 5.15886L11.7338 5.16113C11.3986 5.16113 11.1522 4.8997 11.1522 4.57708V3.13132C11.1522 2.97127 11.0277 2.84685 10.8745 2.84685H5.39223L8.97714 4.64284C9.54166 4.92503 10.0001 5.66685 10.0001 6.29939V11.7909C9.99875 11.8296 10.0052 11.8683 10.0191 11.9046C10.0332 11.9409 10.0545 11.9739 10.0815 12.0017C10.1087 12.0295 10.1413 12.0514 10.1771 12.0663C10.213 12.0812 10.2516 12.0885 10.2905 12.0881H10.8618C10.8996 12.0892 10.9371 12.0826 10.9723 12.069C11.0075 12.0553 11.0395 12.0347 11.0666 12.0083C11.0936 11.982 11.1152 11.9506 11.1299 11.9158C11.1445 11.8809 11.1521 11.8436 11.1521 11.8058V10.3624C11.1509 10.2857 11.1653 10.2095 11.1942 10.1385C11.223 10.0674 11.2659 10.0028 11.3201 9.9486C11.3743 9.89436 11.4389 9.8515 11.51 9.8227C11.581 9.79378 11.6572 9.77958 11.7338 9.78065H12.8744C12.9502 9.77824 13.0256 9.79123 13.0963 9.81869C13.1669 9.84614 13.2313 9.88766 13.2855 9.94056C13.3399 9.99346 13.3829 10.0567 13.4122 10.1266C13.4415 10.1965 13.4564 10.2716 13.4561 10.3474V12.0904C13.4561 13.3737 12.424 14.399 11.151 14.399H10.0001V14.9854C10.0001 16.2642 9.02207 16.9564 7.81589 16.5418L2.96824 14.8771C1.77012 14.4658 0.783997 13.0938 0.783997 11.8208V2.83863C0.783997 1.55411 1.81164 0.532227 3.07888 0.532227L11.1613 0.532428Z" fill="#B3ADAD"/>
<path d="M16.1299 3.84785C15.9272 3.61053 15.7602 3.67629 15.7602 3.99879V6.29593H11.4402C11.3648 6.29593 11.2924 6.3254 11.2385 6.37816C11.1846 6.43093 11.1537 6.50272 11.1522 6.57812V8.31424C11.1524 8.35174 11.1599 8.38884 11.1745 8.42339C11.1891 8.45795 11.2105 8.48929 11.2373 8.51554C11.2641 8.54179 11.2958 8.56241 11.3306 8.57634C11.3654 8.59027 11.4027 8.5971 11.4402 8.59643L15.7602 8.59991V10.8981C15.7602 11.2138 15.9261 11.2864 16.1299 11.0478L19.0307 7.66454C19.0798 7.60293 19.1066 7.52659 19.1066 7.44784C19.1066 7.36922 19.0798 7.29275 19.0307 7.23128L16.1299 3.84785Z" fill="#B3ADAD"/>
</svg>
