<svg width="20" height="19" viewBox="0 0 20 19" fill="none" xmlns="http://www.w3.org/2000/svg">
<path d="M9.40212 16.6682L7.50328 17.8989C7.08134 18.1451 6.6242 17.8637 6.6242 17.4066V17.3011C3.67024 16.6682 2.12297 14.2067 2.08771 12.0263C2.08771 11.8154 2.2636 11.6043 2.47458 11.6043C2.65035 11.5691 2.86145 11.7098 2.93172 11.9207C3.24818 13.2219 4.58452 14.9098 6.62413 14.98V14.9448C6.62413 14.7339 6.72962 14.5579 6.90551 14.4525C7.08128 14.347 7.32745 14.347 7.50335 14.4877L9.4022 15.7184C9.75374 15.9296 9.75374 16.4219 9.40207 16.668L9.40212 16.6682Z" fill="#B3ADAD"/>
<path d="M16.5408 7.56049C16.5408 7.77146 16.4001 7.94737 16.1891 7.98244C16.0133 8.01764 15.7671 7.91216 15.6967 7.66598C15.3803 6.36482 14.0439 4.67695 12.0043 4.60668V4.64189C12.0043 5.09903 11.512 5.3804 11.1252 5.13423L9.2264 3.86817C8.87473 3.6572 8.87473 3.12966 9.2264 2.91869L11.1252 1.65273C11.4769 1.40655 12.0043 1.65273 12.0043 2.14507V2.25056C15.0989 2.95387 16.5408 5.45056 16.5408 7.5606L16.5408 7.56049Z" fill="#B3ADAD"/>
<path d="M3.07269 2.42651C3.07269 1.23085 4.02218 0.281494 5.21771 0.281494C6.37816 0.281494 7.36272 1.23098 7.36272 2.42651C7.36272 3.62216 6.41323 4.57152 5.21771 4.57152C4.02205 4.57152 3.07269 3.62203 3.07269 2.42651V2.42651Z" fill="#B3ADAD"/>
<path d="M9.47268 8.01767V9.63527C9.47268 9.81104 9.29691 9.98694 9.121 9.98694H1.27904C1.06807 9.98694 0.927368 9.81118 0.927368 9.63527V8.01767C0.927368 6.2243 2.36907 4.78247 4.16257 4.78247C4.30326 4.78247 4.44395 4.85275 4.47902 4.95824L5.18234 6.32966L5.88565 4.95824C5.95593 4.85275 6.06142 4.78247 6.2021 4.78247C8.03068 4.78247 9.47264 6.2243 9.47264 8.01767H9.47268Z" fill="#B3ADAD"/>
<path d="M12.6727 10.3386C12.6727 9.14296 13.6222 8.1936 14.8177 8.1936C15.9781 8.1936 16.9627 9.14309 16.9627 10.3386C16.9627 11.4991 16.0132 12.4836 14.8177 12.4836C13.622 12.4836 12.6727 11.5341 12.6727 10.3386Z" fill="#B3ADAD"/>
<path d="M19.0726 15.9298V17.5122C19.0726 17.7231 18.8969 17.8639 18.721 17.8639H10.879C10.7033 17.8639 10.5273 17.7232 10.5273 17.5122V15.9298C10.5273 14.1364 11.969 12.6946 13.7625 12.6946C13.9032 12.6946 14.0439 12.7649 14.1142 12.8703L14.8175 14.2418L15.5208 12.8703C15.5911 12.7649 15.6966 12.6946 15.8373 12.6946C17.6307 12.6946 19.0725 14.1363 19.0725 15.9298H19.0726Z" fill="#B3ADAD"/>
</svg>
