<svg width="20" height="19" viewBox="0 0 20 19" fill="none" xmlns="http://www.w3.org/2000/svg">
<path d="M5.61254 4.46002C5.80456 4.46002 5.97247 4.29194 5.97247 4.10009L5.97264 0.980049C5.97264 0.788027 5.80455 0.620117 5.6127 0.620117H5.10862C4.9166 0.620117 4.74869 0.788199 4.74869 0.980049V4.12401C4.74869 4.31603 4.91677 4.48394 5.10862 4.48394L5.61253 4.48411L5.61254 4.46002Z" fill="#B3ADAD"/>
<path d="M15.4525 4.46002C15.6446 4.46002 15.8125 4.29194 15.8125 4.10009V0.980049C15.8125 0.788027 15.6444 0.620117 15.4525 0.620117H14.9485C14.7564 0.620117 14.5885 0.788199 14.5885 0.980049V4.12401C14.5885 4.31603 14.7566 4.48394 14.9485 4.48394L15.4525 4.48411V4.46002Z" fill="#B3ADAD"/>
<path d="M14.6125 13.5801H16.5326V15.5001H14.6125V13.5801Z" fill="#B3ADAD"/>
<path d="M9.33255 13.5801H11.2526V15.5001H9.33255V13.5801Z" fill="#B3ADAD"/>
<path d="M9.33255 8.06006H11.2526V9.9801H9.33255V8.06006Z" fill="#B3ADAD"/>
<path d="M17.9006 2.30005H16.7726V4.10005C16.7726 4.82009 16.1965 5.42009 15.4525 5.42009H14.9484C14.2284 5.42009 13.6284 4.84405 13.6284 4.10005V2.30005H6.93238V4.10005C6.93238 4.82009 6.35634 5.42009 5.61234 5.42009H5.10825C4.38821 5.42009 3.78821 4.84405 3.78821 4.10005L3.78838 2.30005H2.66038C1.58042 2.30005 0.692291 3.18801 0.692291 4.29205V16.892C0.692291 17.9961 1.58025 18.884 2.68429 18.884H17.9243C19.0284 18.884 19.9163 17.9961 19.9163 16.892V4.29205C19.8922 3.18796 19.0042 2.30005 17.9003 2.30005H17.9006ZM6.93255 15.836C6.93255 16.196 6.6446 16.46 6.30859 16.46H3.7166C3.35666 16.46 3.09264 16.1721 3.09264 15.836L3.09247 13.244C3.09247 12.8841 3.38042 12.6201 3.71643 12.6201H6.28451C6.64444 12.6201 6.90847 12.908 6.90847 13.244L6.90864 15.836H6.93255ZM6.93255 10.316C6.93255 10.676 6.6446 10.94 6.30859 10.94L3.7166 10.9402C3.35666 10.9402 3.09264 10.6522 3.09264 10.3162L3.09247 7.72404C3.09247 7.36411 3.38042 7.10009 3.71643 7.10009H6.28451C6.64444 7.10009 6.90847 7.38804 6.90847 7.72404L6.90864 10.316L6.93255 10.316ZM12.2126 15.836C12.2126 16.196 11.9246 16.46 11.5886 16.46H8.9966C8.63666 16.46 8.37264 16.1721 8.37264 15.836V13.244C8.37264 12.8841 8.66059 12.6201 8.9966 12.6201H11.5647C11.9246 12.6201 12.1886 12.908 12.1886 13.244V15.836H12.2126ZM12.2126 10.316C12.2126 10.676 11.9246 10.94 11.5886 10.94L8.9966 10.9402C8.63666 10.9402 8.37264 10.6522 8.37264 10.3162V7.72404C8.37264 7.36411 8.66059 7.10009 8.9966 7.10009H11.5647C11.9246 7.10009 12.1886 7.38804 12.1886 7.72404V10.316L12.2126 10.316ZM17.4926 15.836C17.4926 16.196 17.2046 16.46 16.8686 16.46H14.2766C13.9167 16.46 13.6526 16.1721 13.6526 15.836V13.244C13.6526 12.8841 13.9406 12.6201 14.2766 12.6201H16.8447C17.2046 12.6201 17.4686 12.908 17.4686 13.244V15.836H17.4926ZM17.4926 10.316C17.4926 10.676 17.2046 10.94 16.8686 10.94L14.2766 10.9402C13.9167 10.9402 13.6526 10.6522 13.6526 10.3162V7.72404C13.6526 7.36411 13.9406 7.10009 14.2766 7.10009H16.8447C17.2046 7.10009 17.4686 7.38804 17.4686 7.72404V10.316L17.4926 10.316Z" fill="#B3ADAD"/>
<path d="M4.05255 13.5801H5.97259V15.5001H4.05255V13.5801Z" fill="#B3ADAD"/>
<path d="M14.6125 8.06006H16.5326V9.9801H14.6125V8.06006Z" fill="#B3ADAD"/>
</svg>
