<svg width="19" height="19" viewBox="0 0 19 19" fill="none" xmlns="http://www.w3.org/2000/svg">
<path d="M6.74269 8.71677C6.74269 10.6368 7.98182 12.1728 9.492 12.1728C11.0022 12.1728 12.2413 10.5983 12.2413 8.71677C12.2413 6.95037 11.1571 5.79834 9.492 5.79834C7.82689 5.79834 6.74269 6.95041 6.74269 8.71677Z" fill="#B2ADAD"/>
<path d="M11.5056 13.1329C10.1891 12.7874 8.87244 12.7874 7.55587 13.1329C6.85886 13.325 3.3351 14.3233 3.3351 15.8978V17.5105C3.3351 18.0097 3.76105 18.4321 4.26441 18.4321H14.7583C15.2616 18.4321 15.6876 18.0097 15.6876 17.5105V15.8978C15.6874 14.3234 11.5442 13.1714 11.5055 13.1329H11.5056Z" fill="#B2ADAD"/>
<path d="M5.96824 8.71686C5.96824 7.79529 6.23929 6.98892 6.66525 6.37446C5.85207 6.25928 5.00017 6.33602 4.22575 6.56651C3.83856 6.68169 0.624542 7.56495 0.624542 8.98568V10.5984C0.624542 11.0593 1.01173 11.4433 1.47648 11.4433H6.82021C6.27809 10.6752 5.96827 9.75364 5.96827 8.71688L5.96824 8.71686Z" fill="#B2ADAD"/>
<path d="M13.1319 5.52963C14.4484 5.52963 15.5328 4.18567 15.5328 2.53447C15.5328 0.998435 14.6035 0 13.1319 0C11.6605 0 10.7311 0.998435 10.7311 2.53447C10.7311 4.18567 11.8153 5.52963 13.1319 5.52963Z" fill="#B2ADAD"/>
<path d="M5.89079 5.52963C7.20729 5.52963 8.29163 4.18567 8.29163 2.53447C8.29163 0.998435 7.36232 0 5.89079 0C4.41936 0 3.49005 0.998435 3.49005 2.53447C3.49005 4.18567 4.57425 5.52963 5.89079 5.52963Z" fill="#B2ADAD"/>
<path d="M14.8357 6.56633C14.0226 6.33597 13.1707 6.29754 12.3575 6.37428C12.8222 6.98875 13.0545 7.79511 13.0545 8.71668C13.0545 9.75341 12.7447 10.6751 12.2413 11.4046H17.585C18.0498 11.4046 18.437 11.0206 18.437 10.5598V8.94701C18.437 7.60318 15.4553 6.71991 14.8358 6.56628L14.8357 6.56633Z" fill="#B2ADAD"/>
</svg>
