<svg width="20" height="23" viewBox="0 0 20 23" fill="none" xmlns="http://www.w3.org/2000/svg">
<path d="M10.5355 3.23227V2.14296H10.8926C11.1886 2.14296 11.4284 1.90317 11.4284 1.60725C11.4284 1.31133 11.1886 1.07153 10.8926 1.07153H9.10693C8.81101 1.07153 8.57121 1.31133 8.57121 1.60725C8.57121 1.90317 8.81101 2.14296 9.10693 2.14296H9.46407V3.23227C7.05174 3.37162 4.78897 4.4459 3.15591 6.22684C1.52293 8.00778 0.648395 10.355 0.718068 12.7705C0.787901 15.1859 1.79635 17.4787 3.52946 19.1628C5.26256 20.8464 7.58366 21.7884 10.0001 21.7884C12.4165 21.7884 14.7376 20.8464 16.4707 19.1628C18.2038 17.4789 19.2122 15.186 19.2821 12.7705C19.3517 10.3552 18.4772 8.00766 16.8442 6.22684C15.2111 4.4459 12.9482 3.37162 10.5361 3.23227H10.5355ZM9.99978 20.7143C7.82121 20.7143 5.73203 19.8489 4.19162 18.3084C2.65113 16.7679 1.7857 14.6786 1.7857 12.5002C1.7857 10.3219 2.65113 8.23247 4.19162 6.69206C5.73211 5.15157 7.82141 4.28615 9.99978 4.28615C12.1781 4.28615 14.2675 5.15157 15.8079 6.69206C17.3484 8.23255 18.2139 10.3219 18.2139 12.5002C18.2139 14.6786 17.3484 16.768 15.8079 18.3084C14.2675 19.8489 12.1781 20.7143 9.99978 20.7143Z" fill="white" stroke="white" stroke-width="0.4"/>
<path d="M9.99998 6.96411C8.53186 6.96411 7.12386 7.54734 6.08561 8.58546C5.04749 9.62374 4.46426 11.0317 4.46426 12.4998C4.46426 13.9679 5.04749 15.3759 6.08561 16.4142C7.1239 17.4523 8.5319 18.0355 9.99998 18.0355C11.4681 18.0355 12.8761 17.4523 13.9143 16.4142C14.9525 15.3759 15.5357 13.9679 15.5357 12.4998C15.5347 11.032 14.9512 9.62452 13.9132 8.58656C12.8753 7.5486 11.4678 6.96505 9.99998 6.96411ZM9.99998 16.9641C8.81598 16.9641 7.68047 16.4938 6.84324 15.6566C6.00602 14.8193 5.53569 13.6838 5.53569 12.4998C5.53569 11.3158 6.00602 10.1803 6.84324 9.34309C7.68047 8.50587 8.81598 8.03554 9.99998 8.03554C11.184 8.03554 12.3195 8.50587 13.1567 9.34309C13.9939 10.1803 14.4643 11.3158 14.4643 12.4998C14.4624 13.6832 13.9914 14.8176 13.1546 15.6545C12.3177 16.4912 11.1833 16.9622 9.99998 16.9641Z" fill="white" stroke="white" stroke-width="0.4"/>
<path d="M11.8413 10.8719L9.03784 13.21L8.17217 12.3795C7.99359 12.2118 7.70682 12.2118 7.52822 12.3795C7.44211 12.4605 7.39371 12.5709 7.39371 12.6863C7.39371 12.8015 7.44211 12.912 7.52822 12.993L8.70057 14.1099C8.78572 14.1917 8.90179 14.2375 9.02261 14.2373C9.13434 14.2393 9.24295 14.2011 9.32634 14.1302L12.4518 11.5258C12.6414 11.366 12.659 11.0901 12.4913 10.9095C12.3236 10.7289 12.0339 10.7121 11.8444 10.8719L11.8413 10.8719Z" fill="#12D03C" stroke="#12D03C" stroke-width="0.3"/>
</svg>
