<svg width="20" height="18" viewBox="0 0 20 18" fill="none" xmlns="http://www.w3.org/2000/svg">
<path d="M9.96001 1.65125C9.87784 1.65348 9.79693 1.6726 9.72243 1.70747L1.12243 5.90747C0.985992 5.97304 0.879546 6.08786 0.824299 6.22876C0.769053 6.36967 0.769053 6.52633 0.824299 6.66723C0.879546 6.80812 0.986127 6.92295 1.12257 6.98865L9.72257 11.1887C9.88831 11.2692 10.0818 11.2692 10.2475 11.1887L18.8475 6.98865C18.984 6.92295 19.0904 6.80813 19.1457 6.66723C19.2009 6.52632 19.2009 6.36965 19.1457 6.22876C19.0904 6.08786 18.9838 5.97304 18.8474 5.90747L10.2474 1.70747C10.1577 1.6652 10.0591 1.64595 9.96001 1.65125ZM9.98499 2.91993L17.2164 6.45118L9.98499 9.97614L2.75356 6.45118L9.98499 2.91993ZM18.6164 8.83243C18.5179 8.83396 18.4212 8.85977 18.3352 8.90749L9.98516 12.7889L1.63516 8.90749C1.54602 8.86312 1.44725 8.84164 1.34764 8.84499C1.16557 8.85294 0.99691 8.9432 0.88935 9.09052C0.781789 9.2377 0.74705 9.4259 0.794903 9.60181C0.842757 9.77772 0.967896 9.9224 1.13516 9.99495L9.73516 13.995C9.89393 14.0676 10.0764 14.0676 10.2352 13.995L18.8352 9.99495C19.0136 9.92868 19.1499 9.78164 19.2028 9.59888C19.2555 9.41598 19.2184 9.21899 19.1027 9.06777C18.9872 8.91668 18.8067 8.82936 18.6164 8.83243ZM18.6164 11.6324C18.5179 11.6339 18.4212 11.6597 18.3352 11.7074L9.98516 15.5888L1.63516 11.7074C1.54602 11.6631 1.44725 11.6416 1.34764 11.6449C1.16557 11.6529 0.99691 11.7433 0.88935 11.8905C0.781789 12.0378 0.74705 12.2258 0.794903 12.4017C0.842753 12.5777 0.967896 12.7223 1.13516 12.7949L9.73516 16.7949C9.89393 16.8677 10.0764 16.8677 10.2352 16.7949L18.8352 12.7949C19.0136 12.7286 19.1499 12.5817 19.2028 12.3988C19.2555 12.2159 19.2184 12.0189 19.1027 11.8677C18.9872 11.7166 18.8067 11.6293 18.6164 11.6324Z" fill="white" stroke="white" stroke-width="0.3"/>
<path d="M0.8153 12.4681C0.760053 12.3272 0.760053 12.1705 0.8153 12.0296C0.946324 11.6954 1.332 11.5409 1.65746 11.6923L10.01 15.5767L18.3894 11.6757C18.7066 11.5281 19.07 11.6959 19.1977 12.0217C19.2529 12.1626 19.2529 12.3192 19.1977 12.4601C19.1425 12.601 19.036 12.7158 18.8996 12.7816L10.2726 16.7892C10.1068 16.8697 9.91335 16.8697 9.74761 16.7892L1.11357 12.7895C0.977128 12.7238 0.870546 12.6089 0.8153 12.4681Z" fill="#12D03C" stroke="#12D03C" stroke-width="0.3"/>
</svg>
