<svg width="20" height="20" viewBox="0 0 20 20" fill="none" xmlns="http://www.w3.org/2000/svg">
<path d="M19.1952 18.2318C18.6788 17.8573 18.218 17.4117 17.8265 16.908C18.6818 15.9784 19.2343 14.8106 19.4104 13.5596C19.5863 12.3088 19.3777 11.0338 18.812 9.90425C18.2464 8.77479 17.3505 7.84397 16.2434 7.23558C15.993 5.61533 15.2388 4.11504 14.0878 2.94736C12.9369 1.77983 11.4476 1.00429 9.83105 0.730576C8.21455 0.456997 6.55302 0.699186 5.08177 1.42297C3.61066 2.14675 2.40473 3.31525 1.63505 4.76297C0.865376 6.2105 0.570876 7.86368 0.793555 9.48797C1.01607 11.1123 1.74445 12.6254 2.8753 13.8126C2.34641 14.5187 1.7143 15.141 1.0003 15.6589C0.85089 15.7588 0.751841 15.9182 0.728262 16.0964C0.704685 16.2745 0.758954 16.4541 0.877258 16.5894C0.995423 16.7247 1.16618 16.8027 1.34587 16.8033C2.98747 16.8503 4.61862 16.5283 6.11908 15.8607C6.75537 16.0686 7.41583 16.1933 8.08408 16.232C8.83701 17.3372 9.92701 18.1695 11.1914 18.6049C12.4559 19.0402 13.8273 19.0551 15.101 18.6476C16.281 19.1617 17.5594 19.41 18.846 19.3751C19.0257 19.3751 19.1966 19.2977 19.3152 19.1628C19.4339 19.0279 19.4887 18.8485 19.4657 18.6703C19.4428 18.4921 19.3443 18.3324 19.1953 18.232L19.1952 18.2318ZM5.78345 14.631C4.95588 15.0511 4.06148 15.324 3.1403 15.4373C3.54027 15.0178 3.90005 14.5615 4.21466 14.0748C4.29404 13.9508 4.32724 13.8026 4.30813 13.6567C4.28902 13.5107 4.21899 13.376 4.11031 13.2767C2.89924 12.1711 2.14295 10.6543 1.98895 9.02168C1.83493 7.38915 2.29406 5.75758 3.27702 4.44525C4.25999 3.13261 5.69638 2.23293 7.30631 1.9214C8.91638 1.60987 10.5846 1.90884 11.9863 2.75997C13.388 3.61111 14.4227 4.95347 14.8888 6.52568C15.3549 8.09783 15.219 9.78726 14.5078 11.265C13.7965 12.7425 12.5607 13.9024 11.041 14.5187C9.52134 15.1349 7.82674 15.1635 6.28709 14.5988C6.12192 14.5394 5.93944 14.5511 5.78334 14.6313L5.78345 14.631ZM15.4409 17.4191C15.2843 17.3369 15.1004 17.3242 14.9341 17.3841C14.0277 17.7195 13.0431 17.7827 12.1014 17.5659C11.1596 17.3489 10.3019 16.8615 9.63348 16.1635C11.4337 15.9058 13.0876 15.0283 14.3103 13.6821C15.5328 12.3357 16.2475 10.6051 16.3309 8.78852C17.4789 9.6952 18.1701 11.061 18.2206 12.5232C18.2712 13.9851 17.6761 15.3954 16.5934 16.3792C16.485 16.4787 16.415 16.6132 16.3959 16.759C16.3768 16.9049 16.4099 17.0528 16.4891 17.1768C16.6688 17.4558 16.8676 17.7222 17.0841 17.9737C16.511 17.8718 15.9563 17.685 15.4385 17.4193L15.4409 17.4191Z" fill="white" stroke="white" stroke-width="0.4"/>
<path d="M8.90845 5.04317C9.18621 5.10971 9.44027 5.25173 9.64227 5.45374C9.84427 5.65575 9.9863 5.90981 10.0528 6.18756C10.1276 6.49071 10.11 6.80935 10.0021 7.10231C9.89408 7.39528 9.70086 7.64917 9.44724 7.83124C8.4951 8.48149 7.9206 9.55585 7.90846 10.7087C7.90943 10.8722 7.97626 11.0284 8.094 11.1418C8.21161 11.2552 8.37009 11.3163 8.53347 11.3113C8.70157 11.306 8.86089 11.2352 8.97754 11.1142C9.09431 10.9931 9.15918 10.8314 9.15848 10.6631C9.18457 9.92723 9.56473 9.24919 10.1791 8.84323C10.6303 8.51552 10.9746 8.06198 11.1689 7.53937C11.3634 7.01676 11.399 6.4484 11.2716 5.90573C11.1539 5.39819 10.8962 4.93405 10.5279 4.56573C10.1595 4.1973 9.69534 3.93962 9.18791 3.82187C8.34584 3.62586 7.46052 3.82494 6.78348 4.36248C6.11134 4.89455 5.71973 5.70526 5.72098 6.56255C5.72098 6.7859 5.84012 6.99223 6.03348 7.10383C6.22684 7.21544 6.46512 7.21544 6.65848 7.10383C6.85184 6.99223 6.97098 6.78589 6.97098 6.56255C6.97168 6.08223 7.1928 5.62869 7.57073 5.33237C7.94866 5.03591 8.44184 4.92933 8.90848 5.04316L8.90845 5.04317Z" fill="#12D03C" stroke="#12D03C" stroke-width="0.3"/>
<path d="M9.15845 12.5C9.15845 12.8451 8.87859 13.125 8.53345 13.125C8.1883 13.125 7.90845 12.8451 7.90845 12.5C7.90845 12.1549 8.1883 11.875 8.53345 11.875C8.87859 11.875 9.15845 12.1549 9.15845 12.5Z" fill="#12D03C" stroke="#12D03C" stroke-width="0.3"/>
</svg>
