<svg width="20" height="20" viewBox="0 0 20 20" fill="none" xmlns="http://www.w3.org/2000/svg">
<path d="M19.9167 9.53088C19.5892 7.0104 18.3144 4.70916 16.3511 3.09492C14.3879 1.48067 11.8837 0.674559 9.34741 0.840423C6.81116 1.00629 4.43324 2.13168 2.69697 3.98786C0.960696 5.84405 -0.0036279 8.29172 6.76519e-07 10.8334C-0.00480299 12.1938 0.270882 13.5406 0.809846 14.7898C1.34881 16.0389 2.13948 17.1635 3.1325 18.0934C3.89195 18.7965 4.89263 19.1808 5.9275 19.1667H14.0667C15.16 19.1693 16.2104 18.7415 16.9908 17.9759C18.1031 16.8938 18.9469 15.5665 19.4549 14.1002C19.9629 12.6339 20.1211 11.0692 19.9167 9.53088ZM15.8258 16.7809C15.357 17.2428 14.7249 17.5012 14.0667 17.5H5.9275C5.31856 17.5126 4.72791 17.2916 4.27667 16.8825C3.4494 16.1076 2.79069 15.1706 2.34163 14.1298C1.89257 13.089 1.66281 11.9669 1.66667 10.8334C1.66749 9.66025 1.91564 8.50047 2.39495 7.42972C2.87425 6.35897 3.57393 5.40131 4.44833 4.61922C5.96762 3.24914 7.94253 2.49369 9.98833 2.50005C10.3152 2.50019 10.6418 2.51855 10.9667 2.55505C12.5297 2.73658 14.0093 3.35719 15.2341 4.34499C16.4589 5.33279 17.3789 6.64736 17.8874 8.13646C18.3958 9.62555 18.4721 11.2282 18.1072 12.7589C17.7424 14.2895 16.9514 15.6855 15.8258 16.785V16.7809ZM6.50583 14.4042C6.66386 14.5589 6.75395 14.7701 6.7563 14.9912C6.75864 15.2123 6.67304 15.4254 6.51833 15.5834C6.36362 15.7414 6.15248 15.8315 5.93134 15.8338C5.7102 15.8362 5.49719 15.7506 5.33917 15.5959C4.3933 14.6694 3.74475 13.4822 3.47618 12.1857C3.2076 10.8891 3.33118 9.542 3.83115 8.31598C4.33113 7.08996 5.18485 6.04059 6.2835 5.30162C7.38215 4.56265 8.67595 4.16756 10 4.16672C10.3187 4.16662 10.637 4.18918 10.9525 4.23422C11.0609 4.24984 11.1651 4.28665 11.2592 4.34256C11.3533 4.39847 11.4355 4.47238 11.501 4.56006C11.5666 4.64774 11.6142 4.74748 11.6412 4.85357C11.6682 4.95967 11.674 5.07004 11.6583 5.17838C11.644 5.28732 11.608 5.39229 11.5525 5.48712C11.497 5.58195 11.423 5.66472 11.3351 5.73056C11.2471 5.7964 11.1469 5.84399 11.0402 5.87052C10.9336 5.89705 10.8227 5.90199 10.7142 5.88505C9.67124 5.73608 8.60791 5.92035 7.67591 6.41155C6.74392 6.90276 5.99089 7.67579 5.5243 8.62035C5.05771 9.5649 4.90139 10.6327 5.07765 11.6714C5.25391 12.71 5.75375 13.6665 6.50583 14.4042ZM16.5992 9.88088C16.6442 10.1964 16.6668 10.5147 16.6667 10.8334C16.6694 11.7214 16.4931 12.6009 16.1483 13.4193C15.8035 14.2378 15.2973 14.9783 14.66 15.5967C14.5018 15.7514 14.2885 15.8369 14.0672 15.8344C13.8459 15.8319 13.6347 15.7416 13.48 15.5834C13.3253 15.4251 13.2398 15.2119 13.2423 14.9906C13.2448 14.7693 13.3351 14.5581 13.4933 14.4034C14.0564 13.8546 14.4816 13.1803 14.7342 12.4357C14.9868 11.6911 15.0596 10.8973 14.9467 10.1192C14.9151 9.9003 14.9717 9.6778 15.1042 9.50066C15.2366 9.32351 15.434 9.20624 15.6529 9.17463C15.8718 9.14303 16.0943 9.19968 16.2715 9.33213C16.4486 9.46458 16.5659 9.66197 16.5975 9.88088H16.5992ZM11.605 10.4067C11.7053 10.7673 11.6833 11.151 11.5425 11.4979C11.4017 11.8447 11.15 12.1351 10.8268 12.3238C10.5035 12.5125 10.1268 12.5888 9.7556 12.5408C9.38437 12.4928 9.03949 12.3233 8.77481 12.0586C8.51013 11.7939 8.34056 11.449 8.29258 11.0778C8.2446 10.7066 8.32091 10.3299 8.50959 10.0066C8.69827 9.68334 8.98871 9.43165 9.33553 9.29086C9.68235 9.15007 10.066 9.1281 10.4267 9.22838L13.5775 6.07755C13.6544 5.99796 13.7463 5.93447 13.848 5.8908C13.9497 5.84713 14.059 5.82414 14.1697 5.82317C14.2803 5.82221 14.39 5.8433 14.4925 5.8852C14.5949 5.9271 14.6879 5.98898 14.7662 6.06722C14.8444 6.14546 14.9063 6.23851 14.9482 6.34092C14.9901 6.44334 15.0112 6.55307 15.0102 6.66372C15.0092 6.77437 14.9863 6.88372 14.9426 6.98539C14.8989 7.08706 14.8354 7.17901 14.7558 7.25588L11.605 10.4067Z" fill="white"/>
<path d="M11.5339 11.4825C11.6747 11.1357 11.6967 10.752 11.5964 10.3914L14.7472 7.24055C14.8268 7.16368 14.8903 7.07173 14.934 6.97006C14.9777 6.86839 15.0007 6.75904 15.0016 6.64839C15.0026 6.53774 14.9815 6.42801 14.9396 6.32559C14.8977 6.22318 14.8358 6.13013 14.7576 6.05189C14.6793 5.97365 14.5863 5.91177 14.4839 5.86987C14.3815 5.82797 14.2717 5.80688 14.1611 5.80785C14.0504 5.80881 13.9411 5.8318 13.8394 5.87547C13.7377 5.91914 13.6458 5.98263 13.5689 6.06222L10.4181 9.21305C10.0574 9.11277 9.67376 9.13474 9.32694 9.27553C8.98011 9.41632 8.68968 9.66801 8.501 9.99129C8.31231 10.3146 8.23601 10.6912 8.28399 11.0625C8.33197 11.4337 8.50154 11.7786 8.76622 12.0432C9.0309 12.3079 9.37578 12.4775 9.747 12.5255C10.1182 12.5735 10.4949 12.4971 10.8182 12.3085C11.1414 12.1198 11.3931 11.8293 11.5339 11.4825Z" fill="#12D03C"/>
</svg>
