<svg width="20" height="20" viewBox="0 0 20 20" fill="none" xmlns="http://www.w3.org/2000/svg">
<path d="M18.3902 8.06682C18.4448 7.48046 17.9834 6.97412 17.3945 6.97412H2.60509C2.01619 6.97412 1.5548 7.48046 1.6094 8.06683L2.53089 17.964C2.57876 18.4782 3.01022 18.8713 3.52658 18.8713H16.4731C16.9894 18.8713 17.4209 18.4781 17.4687 17.964L18.3902 8.06682Z" stroke="white" stroke-width="1.4" stroke-miterlimit="10"/>
<path d="M2.61542 6.66668V2.35034C2.61542 1.79806 3.06313 1.35034 3.61542 1.35034H6.60073C6.88422 1.35034 7.15438 1.47066 7.34402 1.68138L8.22494 2.66017C8.41458 2.87089 8.68475 2.99121 8.96823 2.99121H16.3842C16.9365 2.99121 17.3842 3.43892 17.3842 3.99121V6.66664" stroke="white" stroke-width="1.4" stroke-miterlimit="10"/>
<path d="M5.43845 15.709L9.15367 15.709" stroke="#12D03C" stroke-width="2" stroke-miterlimit="10" stroke-linecap="round"/>
</svg>
