<svg width="20" height="18" viewBox="0 0 20 18" fill="none" xmlns="http://www.w3.org/2000/svg">
<g clip-path="url(#clip0_640_5926)">
<path d="M0.570276 9.17618L0.570276 9.176L0.580321 4.44239C0.580321 4.44233 0.580321 4.44227 0.580321 4.44222L0.580321 4.44207L0.730321 4.44239C0.730321 3.89439 1.17689 3.44824 1.72586 3.44824L0.570276 9.17618ZM0.570276 9.17618C0.570084 9.38709 0.690216 9.5799 0.88027 9.67207L0.880286 9.67208C1.06518 9.76171 1.25418 9.84521 1.44276 9.9266L0.570276 9.17618ZM6.76086 2.10978V3.29824L19.4198 4.44303C19.4196 3.81152 18.9061 3.29811 18.2746 3.29811L13.2389 3.29824V2.10978C13.2389 1.26911 12.5551 0.585352 11.7144 0.585352H8.28528C7.44462 0.585352 6.76086 1.26915 6.76086 2.10978ZM19.4297 9.05269L19.4198 4.44336L19.2797 9.05312L19.4297 9.0528V9.05269ZM1.67992 4.44367V4.44336C1.67992 4.43348 1.68415 4.42204 1.69392 4.41229C1.70368 4.40254 1.71529 4.39819 1.72551 4.39819H18.2744C18.2845 4.39819 18.2959 4.40247 18.3056 4.4121C18.3151 4.42169 18.3196 4.43326 18.3196 4.44392V4.44424L18.3286 8.71733C16.5242 9.61027 14.3804 10.146 11.947 10.3155C11.9168 9.85727 11.5351 9.4939 11.0696 9.4939H8.93036C8.46155 9.4939 8.07744 9.86236 8.05192 10.325C5.66275 10.1722 3.51902 9.67038 1.67077 8.82838L1.67992 4.44367ZM7.86089 2.10978C7.86089 2.10978 7.86089 2.10977 7.86089 2.10977C7.8609 1.87584 8.05151 1.68543 8.28525 1.68543H11.7145C11.9431 1.68543 12.1389 1.88124 12.1389 2.10978V3.29825H7.86102L7.86089 2.10978ZM17.457 16.2694C17.457 16.2771 17.4533 16.2889 17.4423 16.2999C17.4313 16.3109 17.4195 16.3146 17.4118 16.3146L2.58786 16.3147C2.5779 16.3147 2.56643 16.3105 2.55669 16.3007C2.54695 16.291 2.54269 16.2795 2.54269 16.2696V10.3587C4.20824 10.9464 6.0525 11.3051 8.05055 11.4274V11.8409C8.05055 12.3261 8.44513 12.7207 8.93034 12.7207H11.0693C11.5545 12.7207 11.9487 12.3258 11.9487 11.8409V11.4207C13.9706 11.286 15.8153 10.9076 17.4565 10.2904L17.457 16.2694ZM9.15054 11.6209V10.5937H10.849V11.6209H9.15054Z" fill="white" stroke="white" stroke-width="0.3"/>
<path d="M8.87839 12.189C8.7127 12.189 8.57839 12.0547 8.57839 11.889V10.3162C8.57839 10.1505 8.7127 10.0162 8.87839 10.0162H11.1223C11.288 10.0162 11.4223 10.1505 11.4223 10.3162V11.889C11.4223 12.0547 11.288 12.189 11.1223 12.189H8.87839Z" stroke="#12D03C" stroke-width="1.4"/>
</g>
<defs>
<clipPath id="clip0_640_5926">
<rect width="20" height="17.5" fill="white" transform="translate(0 0.25)"/>
</clipPath>
</defs>
</svg>
