<svg width="20" height="23" viewBox="0 0 20 23" fill="none" xmlns="http://www.w3.org/2000/svg">
<g clip-path="url(#clip0_640_5935)">
<path d="M18.9364 5.82222C18.9142 5.24449 18.9142 4.68893 18.9142 4.15556C18.9142 3.73329 18.5809 3.40004 18.1587 3.40004C14.8919 3.37787 12.4031 2.44456 10.3365 0.444486C10.0475 0.155549 9.5586 0.155549 9.26983 0.444486C7.20308 2.44456 4.71427 3.3779 1.46983 3.3779C1.04757 3.3779 0.714313 3.71117 0.714313 4.13341C0.714313 4.66679 0.714313 5.22234 0.692147 5.82226C0.581004 11.3112 0.425373 18.8 9.55882 21.9556C9.64764 21.9778 9.71445 22.0001 9.80327 22.0001C9.89209 22.0001 9.98106 21.9779 10.0477 21.9556C19.1811 18.8 19.0255 11.3112 18.9366 5.82226L18.9364 5.82222ZM9.80303 20.4222C1.9808 17.5778 2.09192 11.3556 2.20303 5.86667C2.20303 5.5334 2.22519 5.2223 2.22519 4.91119C5.26976 4.75556 7.71408 3.84441 9.80297 2.02226C11.8919 3.84456 14.3363 4.77786 17.3808 4.88885C17.3808 5.19995 17.3807 5.51107 17.4029 5.84433C17.5141 11.3554 17.6252 17.5777 9.80292 20.4221L9.80303 20.4222Z" fill="white" stroke="white" stroke-width="0.4"/>
<path d="M12.4253 8.46674L8.75867 12.1335L7.18081 10.5556C6.89188 10.2667 6.40296 10.2667 6.09189 10.5556C5.80295 10.8446 5.80295 11.3335 6.09189 11.6446L8.20296 13.7556C8.35859 13.9113 8.53623 13.9779 8.73633 13.9779C8.93629 13.9779 9.13625 13.9113 9.2697 13.7556L13.4919 9.53341C13.7809 9.24447 13.7809 8.75555 13.4919 8.44448C13.2031 8.15554 12.7142 8.15564 12.4253 8.46674Z" fill="#12D03C" stroke="#12D03C" stroke-width="0.4"/>
</g>
<defs>
<clipPath id="clip0_640_5935">
<rect width="20" height="22.2222" fill="white"/>
</clipPath>
</defs>
</svg>
