<svg width="21" height="21" viewBox="0 0 21 21" fill="none" xmlns="http://www.w3.org/2000/svg">
<path d="M18.0003 2.02637C18.0003 3.13094 17.1049 4.02637 16.0003 4.02637C14.8955 4.02637 14.0001 3.13094 14.0001 2.02637C14.0001 0.921794 14.8955 0.0263672 16.0003 0.0263672C17.1049 0.0263672 18.0003 0.921794 18.0003 2.02637Z" fill="#12D03C"/>
<path d="M13.8424 10.2014L13.842 10.2007L13.0923 9.0493L12.0416 10.6988L13.4648 11.0261L13.4651 11.0262C13.9377 11.135 14.3313 11.4612 14.5255 11.9066L14.5297 11.9162L14.5336 11.926C14.7181 12.3867 14.665 12.9083 14.3923 13.3222L11.6578 17.6317L11.6484 17.6465L11.6383 17.6608C11.3345 18.0903 10.8307 18.333 10.3052 18.3023L13.8424 10.2014ZM13.8424 10.2014C14.089 10.5791 14.5093 10.8071 14.9603 10.8078L14.9655 10.8078M13.8424 10.2014L14.9655 10.8078M14.9655 10.8078C15.2049 10.8064 15.4395 10.7412 15.6452 10.6196L15.646 10.6191M14.9655 10.8078L15.646 10.6191M15.646 10.6191L18.7259 8.79124L18.7296 8.78901M15.646 10.6191L18.7296 8.78901M18.7296 8.78901C19.1405 8.54168 19.3877 8.09383 19.379 7.61504C19.3703 7.13537 19.1061 6.69764 18.687 6.46576L18.6868 6.46564M18.7296 8.78901L18.6868 6.46564M18.6868 6.46564C18.2681 6.23422 17.7579 6.24325 17.3477 6.4892C17.3471 6.48959 17.3464 6.48998 17.3458 6.49037L15.4425 7.62236M18.6868 6.46564L15.4425 7.62236M10.677 13.5057L8.95041 13.1073L3.55214 19.4198L3.54846 19.4241L3.54845 19.4241C3.19017 19.8363 2.63927 20.0258 2.10331 19.9213L10.677 13.5057ZM10.677 13.5057L9.08621 15.9984L9.07622 16.014L9.06708 16.0302C8.80774 16.4884 8.80349 17.0479 9.05532 17.51L9.05539 17.5101C9.30718 17.9718 9.77912 18.2716 10.3048 18.3022L10.677 13.5057ZM7.10213 10.3596L1.23628 17.4255C0.882721 17.8368 0.773772 18.405 0.950135 18.9182L0.95026 18.9186C1.12789 19.4346 1.56713 19.8169 2.10298 19.9213L7.10213 10.3596ZM7.10213 10.3596L9.61552 6.30631L8.9012 5.9067L6.72364 7.73734C6.36686 8.05024 5.87117 8.15103 5.42039 8.00239L7.10213 10.3596ZM15.4425 7.62236L14.5909 5.96227C14.5814 5.93261 14.5699 5.90103 14.556 5.86777C14.5086 5.75429 14.4354 5.62565 14.3249 5.48828C14.1049 5.21453 13.7449 4.91528 13.1608 4.62224L9.50773 2.78971C9.50771 2.7897 9.50769 2.78969 9.50767 2.78968C9.5076 2.78965 9.50752 2.78961 9.50745 2.78958C9.26756 2.66917 8.99706 2.62327 8.73084 2.65792M15.4425 7.62236L4.52769 7.00204C4.43024 6.53323 4.59021 6.0483 4.94708 5.72953C4.9472 5.72942 4.94733 5.72931 4.94745 5.7292L8.00978 2.98695L8.01303 2.98404L8.01304 2.98405C8.21412 2.80624 8.46402 2.69245 8.73084 2.65792M8.73084 2.65792C8.73099 2.6579 8.73115 2.65788 8.73131 2.65786L8.82091 3.3521L8.73031 2.65798C8.73048 2.65796 8.73066 2.65794 8.73084 2.65792ZM2.23699 19.2342C2.52749 19.2909 2.82601 19.1882 3.02014 18.9649L1.77047 17.8779C1.5763 18.101 1.51597 18.4109 1.61214 18.6907C1.70847 18.9706 1.94664 19.1777 2.23699 19.2342ZM4.52777 7.00244C4.62529 7.47151 4.96584 7.85251 5.42036 8.00238L4.52777 7.00244Z" stroke="white" stroke-width="1.4"/>
</svg>
