<svg width="20" height="18" viewBox="0 0 20 18" fill="none" xmlns="http://www.w3.org/2000/svg">
<path d="M14.0215 12.5555V13.3715H4.92153C4.68157 13.3715 4.44149 13.4491 4.26153 13.5852L2.1216 15.1978V2.6275H14.0216V6.33836L15.2816 4.95886V2.45264C15.2816 1.86975 14.7816 1.40357 14.2017 1.40357L1.86146 1.40356C1.30918 1.40356 0.861466 1.85128 0.861464 2.40356L0.86142 15.5279C0.86142 15.936 1.08143 16.2856 1.46146 16.48C1.62147 16.5576 1.78149 16.5965 1.94149 16.5965C2.1615 16.5965 2.40146 16.5189 2.60149 16.3828L4.92153 14.5954H14.2015C14.8016 14.5954 15.2815 14.1097 15.2815 13.5463V11.3897L14.4815 12.264C14.3614 12.3807 14.2015 12.4972 14.0215 12.5555Z" fill="white" stroke="white" stroke-width="0.3"/>
<path d="M4.54153 5.58073H11.5815C11.9415 5.58073 12.2216 5.30873 12.2216 4.95894C12.2216 4.62867 11.9416 4.33716 11.5815 4.33716L4.54153 4.33729C4.1816 4.33729 3.90146 4.62867 3.90146 4.95908C3.92155 5.30872 4.20154 5.58072 4.54153 5.58072V5.58073Z" fill="white" stroke="white" stroke-width="0.3"/>
<path d="M12.2215 7.91207C12.2215 7.5818 11.9415 7.29028 11.5815 7.29028H4.54147C4.18154 7.29028 3.9014 7.58166 3.9014 7.91207C3.9014 8.26171 4.18139 8.53385 4.54147 8.53385H11.5815C11.9414 8.53372 12.2214 8.26172 12.2214 7.91207H12.2215Z" fill="white" stroke="white" stroke-width="0.3"/>
<path d="M3.92154 10.8653C3.92154 11.215 4.20153 11.4871 4.56161 11.4871H10.6416L10.8616 10.2631L4.54162 10.2629C4.20164 10.2629 3.92165 10.5349 3.92165 10.8653L3.92154 10.8653Z" fill="white" stroke="white" stroke-width="0.3"/>
<path d="M12.9373 8.96983L16.688 4.90405L18.4752 6.46L14.7245 10.5258L12.9373 8.96983Z" fill="white"/>
<path d="M19.7415 4.57044L18.5016 3.48248C18.3615 3.34641 18.1215 3.36593 18.0016 3.50186L17.2616 4.31786L19.0416 5.87218L19.7816 5.05618C19.9015 4.92011 19.8814 4.687 19.7415 4.57046L19.7415 4.57044Z" fill="#12D03C"/>
<path d="M12.0415 12.128L13.5615 11.7006C13.6215 11.6812 13.6815 11.6423 13.7215 11.6034L14.1615 11.1371L12.3815 9.58276L11.9415 10.0491C11.9015 10.1074 11.8616 10.1656 11.8616 10.2239L11.6015 11.7393C11.5616 11.992 11.8016 12.1863 12.0415 12.128V12.128Z" fill="#12D03C"/>
</svg>
