<svg width="20" height="21" viewBox="0 0 20 21" fill="none" xmlns="http://www.w3.org/2000/svg">
<path d="M19.9886 1.03702C19.9886 0.481445 19.5357 0.0323783 18.9802 0.0370571L1.15593 0.187168C0.612348 0.191745 0.171984 0.629715 0.164444 1.17326L0.0111694 12.2225C0.0111694 12.426 0.11977 12.6141 0.296052 12.7159C0.472334 12.8178 0.689532 12.8178 0.865833 12.7159C1.04211 12.6141 1.15072 12.426 1.15072 12.2225V1.13423H18.8716V14.4335H13.3503C13.1797 14.4335 12.9998 14.4289 12.8614 14.5369C12.7229 14.645 12.6421 14.8107 12.6421 14.9861C12.6421 15.1617 12.7229 15.3274 12.8614 15.4354C12.9998 15.5434 13.1797 15.5389 13.3503 15.5389L18.9924 15.5178C19.5432 15.5157 19.9886 15.0686 19.9886 14.5178V1.03702Z" fill="white"/>
<path d="M8.69992 7.25263C8.69992 8.35724 7.80447 9.25269 6.69987 9.25269C5.59537 9.25269 4.69992 8.35724 4.69992 7.25263C4.69992 6.14803 5.59537 5.25269 6.69987 5.25269C7.80447 5.25269 8.69992 6.14803 8.69992 7.25263Z" fill="#12D03C"/>
<path d="M14.3052 9.77669L11.1066 13.4474V19.1296C11.1066 19.2807 11.0467 19.4257 10.9398 19.5326C10.8329 19.6394 10.688 19.6994 10.5369 19.6994H3.33468C3.18358 19.6994 3.03864 19.6394 2.93175 19.5326C2.82487 19.4257 2.76477 19.2807 2.76477 19.1296V11.6639C2.76477 11.5128 2.82487 11.3679 2.93175 11.261C3.03864 11.1541 3.18358 11.0941 3.33468 11.0941H8.73065L11.7891 7.81096C13.6591 5.78709 15.926 8.05377 14.3052 9.77669Z" stroke="white" stroke-width="1.4"/>
</svg>
